<?xml version="1.0" encoding="UTF-8" standalone="no"?>
<!DOCTYPE svg PUBLIC "-//W3C//DTD SVG 1.1//EN" "http://www.w3.org/Graphics/SVG/1.1/DTD/svg11.dtd">
<svg xmlns="http://www.w3.org/2000/svg" version="1.1" viewBox="0 0 322 438">
<path fill="#ffffff" d="
  M 174.26 103.32
  L 284.74 294.49
  A 0.34 0.34 0.0 0 1 284.44 295.00
  L 241.75 295.00
  A 0.34 0.34 0.0 0 1 241.45 294.83
  L 152.33 140.60
  A 0.34 0.34 0.0 0 1 152.33 140.26
  L 173.68 103.32
  A 0.34 0.34 0.0 0 1 174.26 103.32
  Z"
/>
<path fill="#ffffff" d="
  M 167.96 294.80
  L 79.22 141.25
  A 0.38 0.38 0.0 0 1 79.22 140.87
  L 100.45 104.15
  A 0.38 0.38 0.0 0 1 101.11 104.15
  L 211.07 294.43
  A 0.38 0.38 0.0 0 1 210.74 295.00
  L 168.29 294.99
  A 0.38 0.38 0.0 0 1 167.96 294.80
  Z"
/>
<path fill="#e28413" d="
  M 53.83 240.37
  Q 66.54 218.43 79.35 196.39
  A 1.00 1.00 0.0 0 1 81.08 196.39
  L 100.70 230.32
  A 1.02 1.01 45.5 0 1 100.70 231.33
  L 86.83 255.28
  Q 85.96 256.79 87.70 256.78
  L 115.38 256.73
  A 0.99 0.98 -14.4 0 1 116.24 257.23
  L 137.22 293.50
  Q 138.09 295.00 136.35 295.00
  L 24.20 295.00
  A 1.00 1.00 0.0 0 1 23.33 293.51
  Q 38.48 266.86 53.83 240.37
  Z"
/>
</svg>
